# xmcd CD database file
#
# Track frame offsets:
#	150
#	17390
#	39637
#	62831
#	79990
#	99990
#	117782
#	136789
#	159007
#	178471
#	197528
#	217156
#
# Disc length: 3092 seconds
#
# Revision: 0
# Processed by: cddbd v1.5.2PL0 Copyright (c) Steve Scherf et al.
# Submitted via: CDex 1.51
#
DISCID=9b0c120c
DTITLE=Diane Marino - Just Groovin'
DYEAR=2008
DGENRE=Jazz
TTITLE0=Baby I'm Yours
TTITLE1=So Much In Love
TTITLE2=Then You Can Tell Me Goodbye
TTITLE3=Groovin' (Duet With Felix Cavaliere)
TTITLE4=Anyone Who Had A Heart
TTITLE5=Baby It's You
TTITLE6=The Warmth Of The Sun
TTITLE7=Walking In The Rain
TTITLE8=Dedicated To The One I Love
TTITLE9=Hello Stranger 
TTITLE10=Yes I'm Ready
TTITLE11=Never My Love
EXTD=YEAR: 2008
EXTT0=
EXTT1=
EXTT2=
EXTT3=
EXTT4=
EXTT5=
EXTT6=
EXTT7=
EXTT8=
EXTT9=
EXTT10=
EXTT11=
PLAYORDER=
